<svg width="1833" height="701" xmlns="http://www.w3.org/2000/svg" xmlns:xlink="http://www.w3.org/1999/xlink" xml:space="preserve" overflow="hidden"><g transform="translate(-435 -1269)"><g><text fill="#B6BBC4" fill-opacity="1" font-family="Roboto,Roboto_MSFontService,sans-serif" font-style="normal" font-variant="normal" font-weight="700" font-stretch="normal" font-size="330" text-anchor="start" direction="ltr" writing-mode="lr-tb" unicode-bidi="normal" text-decoration="none" transform="matrix(1 0 0 1 862.145 1686)">verbind</text><text fill="#B6BBC4" fill-opacity="1" font-family="Roboto,Roboto_MSFontService,sans-serif" font-style="normal" font-variant="normal" font-weight="700" font-stretch="normal" font-size="330" text-anchor="start" direction="ltr" writing-mode="lr-tb" unicode-bidi="normal" text-decoration="none" transform="matrix(1 0 0 1 1971.88 1686)">.</text><path d="M621.691 1456.54C625.405 1453.15 631.168 1453.41 634.562 1457.12L659.145 1484.03C662.539 1487.74 662.279 1493.5 658.565 1496.9L531.783 1612.75C528.068 1616.14 522.305 1615.88 518.911 1612.17L494.328 1585.27C490.934 1581.55 491.194 1575.79 494.908 1572.4Z" fill="#16192F" fill-rule="evenodd" fill-opacity="1"/><path d="M516.412 1448.17C520.126 1444.78 525.889 1445.04 529.283 1448.75L553.866 1475.66C557.26 1479.37 557 1485.13 553.286 1488.53L479.708 1555.76C475.994 1559.16 470.231 1558.9 466.837 1555.18L442.254 1528.28C438.86 1524.57 439.119 1518.8 442.834 1515.41Z" fill="#31304D" fill-rule="evenodd" fill-opacity="1"/><path d="M724.44 1473.03C728.154 1469.63 733.917 1469.89 737.311 1473.61L761.894 1500.51C765.288 1504.22 765.029 1509.98 761.314 1513.38L587.68 1672.04C583.966 1675.44 578.203 1675.18 574.809 1671.46L550.226 1644.56C546.832 1640.85 547.091 1635.09 550.806 1631.69Z" fill="#B6BBC4" fill-rule="evenodd" fill-opacity="1"/></g></g></svg>